<?xml version="1.0" encoding="UTF-8" standalone="no"?>
<svg
   xmlns:dc="http://purl.org/dc/elements/1.1/"
   xmlns:cc="http://creativecommons.org/ns#"
   xmlns:rdf="http://www.w3.org/1999/02/22-rdf-syntax-ns#"
   xmlns:svg="http://www.w3.org/2000/svg"
   xmlns="http://www.w3.org/2000/svg"
   xmlns:sodipodi="http://sodipodi.sourceforge.net/DTD/sodipodi-0.dtd"
   xmlns:inkscape="http://www.inkscape.org/namespaces/inkscape"
   aria-labelledby="simpleicons-codepen-icon"
   role="img"
   viewBox="0 0 100 100"
   version="1.1"
   id="svg5"
   sodipodi:docname="codepen-icon.svg"
   width="100"
   height="100"
   inkscape:version="0.92.1 r15371">
  <metadata
     id="metadata11">
    <rdf:RDF>
      <cc:Work
         rdf:about="">
        <dc:format>image/svg+xml</dc:format>
        <dc:type
           rdf:resource="http://purl.org/dc/dcmitype/StillImage" />
        <dc:title>CodePen icon</dc:title>
      </cc:Work>
    </rdf:RDF>
  </metadata>
  <defs
     id="defs9" />
  <sodipodi:namedview
     pagecolor="#ffffff"
     bordercolor="#666666"
     borderopacity="1"
     objecttolerance="10"
     gridtolerance="10"
     guidetolerance="10"
     inkscape:pageopacity="0"
     inkscape:pageshadow="2"
     inkscape:window-width="1920"
     inkscape:window-height="1057"
     id="namedview7"
     showgrid="false"
     inkscape:zoom="3.9859302"
     inkscape:cx="-21.3383"
     inkscape:cy="12.985048"
     inkscape:window-x="-8"
     inkscape:window-y="-8"
     inkscape:window-maximized="1"
     inkscape:current-layer="svg5" />
  <title
     id="simpleicons-codepen-icon">CodePen icon</title>
  <path
     d="m 99.66696,34.412059 -0.0748,-0.361292 -0.0706,-0.20764 c -0.0415,-0.09967 -0.0747,-0.207639 -0.12459,-0.311459 -0.0125,-0.07475 -0.0623,-0.141195 -0.0831,-0.20764 L 99.16853,33.045792 99.04395,32.838152 98.86123,32.588985 98.6702,32.402109 98.42103,32.215234 98.23,32.09065 97.980834,31.907927 97.798111,31.741816 97.735821,31.658756 52.242096,1.222963 c -1.441018,-0.9634473 -3.30562,-0.9634473 -4.742486,0 L 1.8812138,31.588162 1.8189218,31.650452 1.636199,31.7958 1.3870316,32.003439 1.2292256,32.169551 1.0215861,32.402107 0.8679329,32.588983 0.6602934,32.83815 c -0.083056,0.0706 -0.1245837,0.124584 -0.1245837,0.191028 l -0.2076393,0.24917 -0.083056,0.249167 c -0.083056,0.04153 -0.083056,0.166112 -0.1245837,0.290695 L 0.078903,34.02585 C 0,34.154586 0,34.27917 0,34.403754 v 31.133465 c 0,0.182723 0.012458,0.373751 0.041528,0.560627 l 0.041528,0.191028 c 0.020764,0.124584 0.041528,0.249168 0.083056,0.35714 l 0.062292,0.20764 c 0.041528,0.112125 0.066445,0.220098 0.1121253,0.311459 l 0.091361,0.207639 c 0,0.04153 0.062292,0.166112 0.1245837,0.249168 l 0.1245837,0.166111 c 0.062292,0.04153 0.1245837,0.166112 0.1868756,0.249168 l 0.1245837,0.166111 0.1661116,0.166112 c 0.041528,0.05399 0.041528,0.124584 0.1245837,0.124584 l 0.2491674,0.174417 0.1661115,0.124584 0.041528,0.05814 45.5561048,30.439949 c 0.681057,0.498335 1.557296,0.676905 2.36709,0.676905 0.809794,0 1.619588,-0.249167 2.36709,-0.747502 l 45.63916,-30.23231 0.05814,-0.04153 0.191028,-0.153653 0.249168,-0.17857 0.19933,-0.149501 0.21595,-0.240862 0.13704,-0.186875 0.16611,-0.249168 0.12459,-0.207639 0.12458,-0.290695 0.0664,-0.215945 0.12458,-0.319765 0.0623,-0.186876 0.12459,-0.332223 V 35.088964 c 0,-0.207639 0,-0.394515 -0.0664,-0.58139 l -0.0581,-0.186876 0.18272,0.01246 z M 49.875006,60.49158 34.717323,50.358772 49.875006,40.21766 65.032689,50.350467 49.875006,60.483274 Z M 45.581021,32.77586 27.005592,45.192702 12.001563,35.159562 45.581021,12.776024 V 32.784166 Z M 19.293862,50.35462 8.571358,57.538946 V 43.207668 l 10.722504,7.167716 z m 7.71173,5.190987 18.575429,12.416842 V 87.978896 L 12.001563,65.591206 27.026356,55.553913 v -0.01661 z M 54.15238,67.962449 72.731961,55.587135 87.735991,65.636886 54.15238,88.020424 V 68.003977 Z M 80.439539,50.396148 91.166196,43.253349 V 57.605391 L 80.439539,50.421064 Z M 72.736114,45.246688 54.160685,32.825694 V 12.767719 L 87.735991,35.151256 72.736114,45.180244 v 0.01246 z"
     id="path3"
     inkscape:connector-curvature="0"
     style="stroke-width:4.15279007" />
</svg>
