<?xml version="1.0" encoding="UTF-8" standalone="no"?>
<svg
   xmlns:dc="http://purl.org/dc/elements/1.1/"
   xmlns:cc="http://creativecommons.org/ns#"
   xmlns:rdf="http://www.w3.org/1999/02/22-rdf-syntax-ns#"
   xmlns:svg="http://www.w3.org/2000/svg"
   xmlns="http://www.w3.org/2000/svg"
   xmlns:sodipodi="http://sodipodi.sourceforge.net/DTD/sodipodi-0.dtd"
   xmlns:inkscape="http://www.inkscape.org/namespaces/inkscape"
   viewBox="0 0 100 100"
   version="1.1"
   id="svg4"
   sodipodi:docname="linkedin-icon.svg"
   inkscape:version="0.92.1 r15371">
  <metadata
     id="metadata10">
    <rdf:RDF>
      <cc:Work
         rdf:about="">
        <dc:format>image/svg+xml</dc:format>
        <dc:type
           rdf:resource="http://purl.org/dc/dcmitype/StillImage" />
      </cc:Work>
    </rdf:RDF>
  </metadata>
  <defs
     id="defs8" />
  <sodipodi:namedview
     pagecolor="#ffffff"
     bordercolor="#666666"
     borderopacity="1"
     objecttolerance="10"
     gridtolerance="10"
     guidetolerance="10"
     inkscape:pageopacity="0"
     inkscape:pageshadow="2"
     inkscape:window-width="1920"
     inkscape:window-height="1057"
     id="namedview6"
     showgrid="false"
     inkscape:zoom="5.4114783"
     inkscape:cx="102.0454"
     inkscape:cy="33.350304"
     inkscape:window-x="-8"
     inkscape:window-y="-8"
     inkscape:window-maximized="1"
     inkscape:current-layer="svg4" />
  <path
     d="m 99.678456,60.737795 v 36.73288 H 78.383051 v -34.27274 c 0,-8.60959 -3.08015,-14.4853 -10.788381,-14.4853 -5.884254,0 -9.38598,3.9598 -10.926517,7.79024 -0.561791,1.36937 -0.706397,3.27534 -0.706397,5.19218 v 35.77562 H 34.659191 c 0,0 0.286902,-58.04677 0,-64.06084 h 21.300487 v 9.08036 c -0.0432,0.0679 -0.09933,0.14114 -0.139988,0.20698 h 0.139988 v -0.20698 c 2.829977,-4.35873 7.88402,-10.58533 19.196539,-10.58533 14.015447,-2.3e-4 24.522239,9.15591 24.522239,28.83293 z M 12.375803,2.5293249 c -7.2875797,0 -12.0542587,4.78008 -12.0542587,11.0660401 0,6.14899 4.6287719,11.07413 11.7715127,11.07413 h 0.142299 c 7.42872,0 12.048713,-4.92422 12.048713,-11.07413 C 24.144084,7.3094049 19.664076,2.5293249 12.375803,2.5293249 Z M 1.5867303,97.470675 H 22.881209 V 33.409835 H 1.5867303 Z"
     id="path2"
     inkscape:connector-curvature="0" />
</svg>
