<?xml version="1.0" encoding="UTF-8" standalone="no"?>
<svg
   xmlns:dc="http://purl.org/dc/elements/1.1/"
   xmlns:cc="http://creativecommons.org/ns#"
   xmlns:rdf="http://www.w3.org/1999/02/22-rdf-syntax-ns#"
   xmlns:svg="http://www.w3.org/2000/svg"
   xmlns="http://www.w3.org/2000/svg"
   xmlns:sodipodi="http://sodipodi.sourceforge.net/DTD/sodipodi-0.dtd"
   xmlns:inkscape="http://www.inkscape.org/namespaces/inkscape"
   viewBox="0 0 100 100"
   version="1.1"
   id="svg4"
   sodipodi:docname="github-icon.svg"
   width="100"
   height="100"
   inkscape:version="0.92.1 r15371">
  <metadata
     id="metadata10">
    <rdf:RDF>
      <cc:Work
         rdf:about="">
        <dc:format>image/svg+xml</dc:format>
        <dc:type
           rdf:resource="http://purl.org/dc/dcmitype/StillImage" />
        <dc:title></dc:title>
      </cc:Work>
    </rdf:RDF>
  </metadata>
  <defs
     id="defs8" />
  <sodipodi:namedview
     pagecolor="#ffffff"
     bordercolor="#666666"
     borderopacity="1"
     objecttolerance="10"
     gridtolerance="10"
     guidetolerance="10"
     inkscape:pageopacity="0"
     inkscape:pageshadow="2"
     inkscape:window-width="1920"
     inkscape:window-height="1057"
     id="namedview6"
     showgrid="false"
     inkscape:zoom="4.2277174"
     inkscape:cx="40.203217"
     inkscape:cy="52.984755"
     inkscape:window-x="-8"
     inkscape:window-y="-8"
     inkscape:window-maximized="1"
     inkscape:current-layer="svg4" />
  <path
     d="m 21.58174,0.65855567 c -0.810057,0.016961 -1.200179,0.1416057 -1.200179,0.1416057 C 17.005125,9.3625539 19.132551,15.685469 19.77813,17.251099 c -3.976268,4.353284 -6.404382,9.898779 -6.404382,16.684289 0,23.818547 14.514201,29.150478 28.320888,30.721248 -1.777653,1.552009 -3.387486,4.294174 -3.9462,8.310791 -3.547339,1.588246 -12.545856,4.336322 -18.08981,-5.165653 0,0 -3.285972,-5.968515 -9.527932,-6.406953 0,0 -6.0648872,-0.07993 -0.425074,3.778123 0,0 4.07367,1.911549 6.901416,9.095405 0,0 3.648853,11.09459 20.942228,7.334457 0.02699,5.193923 0.08481,16.25973 0.08481,17.740809 h 30.821735 c 0,-2.047502 0.0717,-14.908951 0.0717,-23.226167 0,-5.79941 -1.986591,-9.582159 -4.216303,-11.511184 13.841895,-1.538902 28.384109,-6.795019 28.384109,-30.671132 0,-6.785511 -2.411153,-12.331007 -6.396929,-16.68429 0.645578,-1.565631 2.773262,-7.8885451 -0.61037,-16.45093763 0,0 -5.213455,-1.66868594 -17.077753,6.37379983 C 63.642495,5.7964535 58.321101,5.1056438 53.038257,5.080972 47.755669,5.1056434 42.436588,5.7964535 37.478332,7.1737042 29.312231,1.644656 24.293836,0.70558627 21.954644,0.65829867 c -0.132868,-0.00257 -0.257255,-0.00232 -0.372904,0 z M 13.406386,63.217963 c 0.04035,0.0013 0.08122,0.0049 0.123102,0.01105 v 10e-4 c 0.111023,0.01644 0.226158,0.0514 0.338723,0.104341 0.451032,0.202772 0.707515,0.626818 0.552031,0.936757 -0.13698,0.309939 -0.621677,0.402716 -1.064227,0.190693 -0.452059,-0.204057 -0.704688,-0.625276 -0.558713,-0.935215 0.07531,-0.178356 0.26188,-0.283726 0.490866,-0.3048 v -5.13e-4 c 0.03829,-0.0036 0.07761,-0.0046 0.117961,-0.0036 z m 2.470006,2.137192 c 0.284495,-0.0059 0.619106,0.14726 0.88587,0.431757 0.407599,0.438438 0.486497,1.012827 0.176815,1.291927 -0.296575,0.274987 -0.876363,0.147773 -1.268541,-0.286553 -0.407855,-0.433298 -0.482641,-1.014112 -0.182212,-1.291927 0.07633,-0.06861 0.168077,-0.112822 0.270105,-0.132611 0.03829,-0.0075 0.07735,-0.01157 0.117963,-0.01259 z m 2.458439,3.179319 c 0.353629,-0.01901 0.771507,0.217677 1.064227,0.628359 0.379843,0.562054 0.380614,1.224594 -0.0085,1.495213 -0.380613,0.265735 -1.005375,0.01799 -1.390358,-0.534555 -0.380614,-0.553573 -0.381127,-1.216884 0.009,-1.482363 0.09611,-0.06631 0.207911,-0.100489 0.325873,-0.106911 z m 2.981174,3.532176 c 0.345147,-0.01619 0.755829,0.145461 1.090183,0.463367 0.539438,0.500118 0.703146,1.215599 0.340779,1.587217 -0.340522,0.375475 -1.065512,0.276273 -1.596726,-0.237465 -0.54355,-0.500117 -0.695436,-1.212515 -0.354914,-1.588245 0.129784,-0.141092 0.313281,-0.215108 0.52042,-0.224874 z m 4.524958,2.702588 c 0.167819,0.002 0.34412,0.02905 0.521448,0.0843 0.70186,0.212023 1.161886,0.777418 1.015912,1.272396 -0.151115,0.487011 -0.848864,0.707258 -1.553038,0.500374 -0.702887,-0.213308 -1.162656,-0.781787 -1.020537,-1.273937 0.109738,-0.367507 0.532499,-0.588782 1.035958,-0.583385 z m 10.14447,0.213823 c 0.08866,-0.0034 0.175271,-5.15e-4 0.258539,0.0085 0.499347,0.05474 0.886899,0.320219 0.957316,0.701604 0.08841,0.499347 -0.425587,1.011543 -1.159574,1.148523 -0.721648,0.132611 -1.389072,-0.17553 -1.48082,-0.670507 -0.08969,-0.51271 0.431242,-1.02722 1.152892,-1.160088 0.09201,-0.01593 0.182982,-0.02493 0.271647,-0.02801 z m -4.863939,0.607285 h 5.15e-4 c 0.738868,-0.01414 1.345126,0.399374 1.345126,0.907972 0.01748,0.512711 -0.579531,0.937271 -1.318656,0.94678 -0.742981,0.01644 -1.34564,-0.398604 -1.353863,-0.90309 0,-0.517593 0.584669,-0.938299 1.326621,-0.951662 z"
     id="path2"
     inkscape:connector-curvature="0"
     style="stroke-width:0.2569977" />
</svg>
