<?xml version="1.0" encoding="UTF-8" standalone="no"?>
<svg
   xmlns:dc="http://purl.org/dc/elements/1.1/"
   xmlns:cc="http://creativecommons.org/ns#"
   xmlns:rdf="http://www.w3.org/1999/02/22-rdf-syntax-ns#"
   xmlns:svg="http://www.w3.org/2000/svg"
   xmlns="http://www.w3.org/2000/svg"
   xmlns:sodipodi="http://sodipodi.sourceforge.net/DTD/sodipodi-0.dtd"
   xmlns:inkscape="http://www.inkscape.org/namespaces/inkscape"
   viewBox="0 0 100 100"
   version="1.1"
   id="svg4"
   sodipodi:docname="medium.svg"
   width="100"
   height="100"
   inkscape:version="0.92.1 r15371">
  <metadata
     id="metadata10">
    <rdf:RDF>
      <cc:Work
         rdf:about="">
        <dc:format>image/svg+xml</dc:format>
        <dc:type
           rdf:resource="http://purl.org/dc/dcmitype/StillImage" />
        <dc:title></dc:title>
      </cc:Work>
    </rdf:RDF>
  </metadata>
  <defs
     id="defs8" />
  <sodipodi:namedview
     pagecolor="#ffffff"
     bordercolor="#666666"
     borderopacity="1"
     objecttolerance="10"
     gridtolerance="10"
     guidetolerance="10"
     inkscape:pageopacity="0"
     inkscape:pageshadow="2"
     inkscape:window-width="1920"
     inkscape:window-height="1057"
     id="namedview6"
     showgrid="false"
     inkscape:zoom="5.9788953"
     inkscape:cx="20.341551"
     inkscape:cy="54.572154"
     inkscape:window-x="-8"
     inkscape:window-y="-8"
     inkscape:window-maximized="1"
     inkscape:current-layer="svg4" />
  <path
     d="m 69.009828,10.70446 a 2.1750603,2.1750603 0 0 0 -1.795289,1.070273 L 48.90717,42.89296 a 2.1750603,2.1750603 0 0 0 0.06497,2.309091 l 16.616743,24.925245 a 2.1750603,2.1750603 0 0 0 3.618848,0 L 97.651519,27.45985 A 2.1750603,2.1750603 0 0 0 96.81477,24.308032 L 70.061609,10.932267 A 2.1750603,2.1750603 0 0 0 69.009828,10.70446 Z M 2.0755503,12.033798 a 2.1750603,2.1750603 0 0 0 -2.09568478,2.173437 V 74.073179 A 2.1750603,2.1750603 0 0 0 1.1819771,76.018795 L 27.279436,89.067531 a 2.1750603,2.1750603 0 0 0 3.147467,-1.94563 V 27.255957 A 2.1750603,2.1750603 0 0 0 29.224792,25.31034 L 3.1273327,12.261618 A 2.1750603,2.1750603 0 0 0 2.0755503,12.033798 Z M 36.913486,36.758979 a 2.1750603,2.1750603 0 0 0 -2.137004,2.173698 V 55.66414 a 2.1750603,2.1750603 0 0 0 1.154271,1.920331 l 17.270809,9.174895 a 2.1750603,2.1750603 0 0 0 2.830215,-3.126807 L 38.760691,37.726214 a 2.1750603,2.1750603 0 0 0 -1.847205,-0.967235 z m 60.867705,5.36e-4 a 2.1750603,2.1750603 0 0 0 -1.745268,0.966699 L 71.94117,73.869285 a 2.1750603,2.1750603 0 0 0 0.83675,3.151819 l 24.094754,12.046427 a 2.1750603,2.1750603 0 0 0 3.147456,-1.94563 V 38.932677 a 2.1750603,2.1750603 0 0 0 -2.238939,-2.173162 z"
     id="path2"
     inkscape:connector-curvature="0"
     style="stroke-width:0.27184856" />
</svg>
