<?xml version="1.0" encoding="UTF-8" standalone="no"?>
<svg viewBox="0 0 100 100">
  <path d="M 64.560368,50 88.167346,26.413595 c 1.949247,-1.941533 3.021589,-4.525956 3.021589,-7.272388 0,-2.746434 -1.072342,-5.330857 -3.021589,-7.274961 -1.938961,-1.9415315 -4.5311,-3.0113044 -7.277533,-3.0113044 -2.749004,0 -5.335999,1.0697729 -7.282674,3.0113044 L 49.995018,35.452651 26.385469,11.866245 C 24.441366,9.9221415 21.85437,8.8523706 19.100223,8.8523706 c -2.746433,0 -5.333429,1.069772 -7.277533,3.0138744 -4.0142141,4.011645 -4.0167857,10.535708 0,14.54735 L 35.43481,50 11.825262,73.586405 c -4.0167861,4.016786 -4.0167861,10.540848 0,14.54992 1.944104,1.941533 4.531099,3.011304 7.280104,3.011304 2.749004,0 5.336,-1.069771 7.280103,-3.013875 L 49.995018,64.54735 73.604566,88.131181 c 1.946677,1.941534 4.5311,3.013877 7.277533,3.013877 2.751576,0 5.338572,-1.069773 7.282676,-3.013877 4.016786,-4.016785 4.016786,-10.540848 0,-14.547348 z"/>
</svg>
